<?xml version="1.0" standalone="no"?>
<!DOCTYPE svg PUBLIC "-//W3C//DTD SVG 20010904//EN"
 "http://www.w3.org/TR/2001/REC-SVG-20010904/DTD/svg10.dtd">
<svg version="1.0" xmlns="http://www.w3.org/2000/svg"
 width="160.000000pt" height="160.000000pt" viewBox="0 0 160.000000 160.000000"
 preserveAspectRatio="xMidYMid meet">
<metadata>
Created by potrace 1.14, written by Peter Selinger 2001-2017
</metadata>
<g transform="translate(0.000000,160.000000) scale(0.100000,-0.100000)"
fill="#000000" stroke="none">
<path d="M815 1270 c-3 -6 -12 -9 -18 -8 -7 1 -25 -10 -40 -26 -31 -31 -51
-28 -22 4 10 11 13 20 7 20 -6 0 -21 -13 -33 -30 -17 -22 -26 -27 -35 -19 -12
10 -28 1 -75 -43 -9 -9 -20 -14 -23 -11 -3 4 -14 -1 -24 -10 -10 -10 -21 -14
-25 -11 -3 3 -14 -8 -25 -25 -10 -17 -21 -29 -24 -26 -3 3 -10 -13 -17 -35 -7
-23 -18 -40 -26 -40 -18 0 -19 -21 -2 -39 10 -11 9 -13 -4 -8 -13 4 -18 -3
-23 -34 -3 -21 -11 -39 -16 -39 -13 0 -13 -56 0 -81 18 -32 31 -22 25 19 -5
27 -4 33 4 22 9 -12 11 -12 17 3 3 9 4 31 2 47 -4 28 -3 29 13 14 22 -20 34
-2 17 25 -11 18 -9 23 10 41 l22 21 -3 -23 c-1 -17 3 -23 18 -23 14 0 21 8 23
26 2 21 11 28 50 40 44 13 47 16 52 54 4 36 8 40 30 37 14 -2 30 -8 36 -13 7
-6 29 3 62 26 60 41 75 45 42 10 -20 -21 -21 -25 -7 -31 9 -3 31 -1 48 5 52
18 55 13 14 -22 -49 -43 -33 -54 25 -18 65 40 127 62 193 70 61 8 64 6 42 -23
-14 -19 -15 -19 -35 -1 -17 16 -25 17 -58 7 -45 -14 -80 -38 -69 -48 4 -4 23
0 42 9 67 32 89 16 55 -38 -29 -46 -20 -75 23 -75 39 0 104 37 90 51 -6 6 -19
6 -37 -1 -34 -12 -59 -13 -52 -1 4 5 24 12 46 16 48 8 63 25 23 25 l-28 1 34
15 c19 8 41 19 48 25 19 16 5 31 -17 19 -18 -10 -19 -8 -14 19 6 26 3 31 -20
37 -14 3 -23 10 -20 15 3 5 -4 9 -15 9 -11 0 -23 5 -26 10 -4 7 -12 7 -25 0
-13 -7 -21 -7 -25 0 -4 6 -15 8 -25 5 -15 -5 -17 -2 -13 14 5 21 1 23 -78 36
-26 4 -40 1 -49 -10 -14 -17 -60 -21 -60 -4 0 6 9 8 21 4 15 -5 20 -3 17 6 -6
18 -34 24 -43 9z m100 -49 c-8 -13 -35 -15 -35 -2 0 5 8 11 18 13 21 5 26 2
17 -11z m75 15 c0 -2 -11 -6 -25 -8 -14 -3 -25 -1 -25 3 0 5 11 9 25 9 14 0
25 -2 25 -4z m-240 -67 c0 -7 -11 -9 -26 -6 -15 3 -40 1 -55 -3 -27 -8 -37 -2
-22 13 11 12 103 8 103 -4z m138 -11 c-3 -7 -13 -15 -24 -17 -16 -3 -17 -1 -5
13 16 19 34 21 29 4z m-276 -30 c-7 -7 -12 -8 -12 -2 0 14 12 26 19 19 2 -3
-1 -11 -7 -17z m-63 -50 c-5 -17 -14 -36 -20 -42 -9 -8 -10 -6 -5 7 3 10 6 30
6 43 0 14 6 24 14 24 12 0 13 -7 5 -32z m49 -3 c11 19 11 19 12 -1 0 -14 -8
-24 -22 -27 -28 -8 -29 -7 -21 23 6 22 7 22 13 5 7 -19 7 -19 18 0z"/>
<path d="M1077 824 c-3 -4 1 -20 9 -36 14 -27 14 -32 0 -47 -17 -19 -21 -41
-8 -41 12 0 52 44 52 57 0 14 -33 73 -41 73 -3 0 -8 -3 -12 -6z"/>
<path d="M365 754 c-19 -20 -16 -43 7 -58 27 -16 49 9 24 27 -17 13 -18 14 -2
20 10 4 14 11 11 17 -9 14 -21 12 -40 -6z"/>
<path d="M581 756 c-14 -16 -9 -46 7 -46 5 0 15 7 22 16 11 12 11 18 -2 30
-13 13 -16 13 -27 0z"/>
<path d="M1361 756 c-14 -17 -7 -36 14 -36 22 0 29 20 13 36 -13 13 -16 13
-27 0z"/>
<path d="M262 558 c-17 -17 -15 -38 6 -45 9 -3 49 -36 87 -72 39 -36 78 -70
87 -76 15 -9 14 -16 -11 -80 -30 -72 -29 -94 6 -136 7 -8 13 -25 13 -37 0 -12
13 -31 29 -43 25 -18 28 -25 20 -45 -5 -16 -5 -24 2 -24 6 0 13 9 16 21 5 17
11 20 32 15 14 -4 52 -9 83 -13 32 -3 55 -10 52 -14 -3 -5 2 -9 10 -9 9 0 16
5 16 10 0 6 7 10 15 10 8 0 24 9 35 20 16 16 20 32 18 78 -2 62 9 151 21 170
7 12 202 74 209 67 3 -3 -3 -7 -12 -11 -9 -3 -16 -13 -16 -21 0 -11 6 -8 20
10 26 33 84 41 107 14 11 -12 25 -16 40 -12 25 6 29 -5 11 -34 -9 -15 -8 -24
6 -46 17 -26 17 -27 -1 -41 -10 -8 -26 -19 -35 -25 -10 -5 -18 -15 -18 -21 0
-7 12 0 28 14 15 14 39 33 55 43 31 20 35 47 10 73 -24 25 -43 59 -43 75 0 21
-32 46 -69 53 -24 5 -37 2 -54 -13 -12 -11 -62 -32 -112 -48 -80 -25 -109 -31
-152 -34 -7 -1 -13 -8 -13 -17 0 -14 -9 -16 -72 -10 -139 13 -136 12 -132 59
4 37 3 39 -6 17 -8 -18 -13 -21 -19 -11 -7 11 -9 11 -13 0 -2 -7 -11 -10 -21
-6 -14 5 -15 11 -5 38 6 17 13 26 17 21 4 -7 12 -6 23 2 21 15 13 26 -17 26
-28 0 -57 -32 -49 -54 12 -32 -16 -15 -86 53 -41 40 -69 75 -65 81 8 13 -12
40 -29 40 -7 0 -17 -5 -24 -12z m248 -230 c0 -6 -6 -5 -15 2 -8 7 -15 14 -15
16 0 2 7 1 15 -2 8 -4 15 -11 15 -16z m-22 -80 c-13 -55 -20 -59 -37 -22 -9
20 -9 35 1 65 11 38 12 39 29 22 15 -16 16 -24 7 -65z m197 34 c53 -6 60 -10
63 -31 4 -23 2 -23 -45 -17 -153 22 -171 27 -166 46 4 16 12 18 47 14 22 -3
68 -8 101 -12z m-37 -63 c97 -12 102 -13 102 -36 0 -21 -4 -23 -51 -23 -58 0
-189 28 -189 40 0 20 13 38 23 35 7 -2 58 -9 115 -16z m-196 -20 c10 -15 13
-31 8 -39 -6 -9 -12 -4 -24 19 -9 17 -14 36 -10 42 3 6 7 9 8 7 1 -2 9 -15 18
-29z m116 -33 c29 -8 82 -18 117 -21 50 -6 62 -10 61 -24 -4 -23 -99 -26 -179
-6 -69 18 -82 27 -74 49 8 19 9 19 75 2z m105 -84 c67 -4 76 -7 65 -19 -10
-12 -30 -14 -93 -11 -93 6 -165 31 -165 58 0 18 3 17 58 -2 31 -12 92 -23 135
-26z"/>
<path d="M631 544 c-27 -34 -31 -104 -9 -131 11 -14 46 -17 72 -7 28 11 17 23
-21 26 -31 2 -39 7 -41 26 -2 13 2 37 9 54 9 23 16 28 33 23 73 -21 185 -14
193 12 3 8 -21 11 -79 10 -46 -1 -95 1 -110 6 -22 6 -30 2 -47 -19z"/>
<path d="M655 330 c3 -5 18 -10 32 -10 32 0 28 5 -10 14 -19 4 -26 3 -22 -4z"/>
</g>
</svg>
